<?xml version="1.0" standalone="no"?>
<!DOCTYPE svg PUBLIC "-//W3C//DTD SVG 20010904//EN"
 "http://www.w3.org/TR/2001/REC-SVG-20010904/DTD/svg10.dtd">
<svg version="1.0" xmlns="http://www.w3.org/2000/svg"
 width="500.000000pt" height="500.000000pt" viewBox="0 0 500.000000 500.000000"
 preserveAspectRatio="xMidYMid meet">

<g transform="translate(0.000000,500.000000) scale(0.100000,-0.100000)"
fill="#000000" stroke="none">
<path d="M2760 4379 c-63 -11 -153 -53 -225 -104 l-49 -36 -26 30 c-14 17 -33
31 -42 31 -15 0 -17 -10 -11 -99 7 -111 6 -112 -72 -125 -123 -22 -260 -138
-332 -281 -32 -63 -63 -202 -63 -279 1 -67 19 -181 35 -218 9 -23 -8 -23 -66
-2 -111 40 -368 115 -399 117 l-35 2 -3 -77 -3 -77 -42 2 -42 2 0 -70 0 -70
-48 -1 c-27 -1 -50 -4 -52 -6 -3 -2 0 -20 5 -39 6 -18 10 -49 10 -66 l0 -33
-69 0 c-42 0 -73 -5 -77 -12 -4 -6 -7 -36 -8 -67 0 -54 2 -59 62 -136 74 -94
164 -211 244 -317 52 -69 61 -77 107 -88 106 -25 589 -189 649 -219 21 -11 60
-35 89 -54 82 -55 113 -62 180 -41 31 10 80 33 107 52 49 33 126 66 326 139
122 45 346 119 386 127 35 8 71 43 134 131 24 33 71 92 105 130 34 39 89 105
123 147 59 72 62 79 62 130 0 30 -5 59 -12 66 -7 7 -39 12 -75 12 l-62 0 2 73
2 72 -51 3 -51 3 5 69 5 70 -47 0 -47 0 2 73 2 72 -55 0 c-31 0 -66 -6 -79
-12 -13 -7 -57 -22 -98 -33 -41 -12 -119 -39 -175 -61 -55 -21 -103 -36 -107
-32 -4 5 -1 26 7 48 8 22 17 83 21 135 8 130 -13 237 -72 355 -68 139 -155
216 -291 256 -41 12 -77 25 -79 29 -7 11 7 50 17 50 6 0 33 -16 61 -36 60 -44
148 -77 243 -94 66 -12 78 -11 154 9 125 34 161 50 253 109 37 24 67 49 67 56
0 7 -10 22 -22 33 -28 25 -199 117 -254 137 -56 19 -158 26 -224 15z m227 -89
c64 -22 135 -61 140 -76 2 -7 -13 -8 -49 -3 -29 4 -156 8 -283 9 l-230 1 27
23 c27 24 103 52 183 67 55 10 150 1 212 -21z m122 -124 c-53 -48 -230 -93
-320 -82 -58 7 -211 65 -216 81 -2 6 94 11 273 11 219 2 273 -1 263 -10z
m-540 -158 c79 -38 178 -133 216 -208 30 -60 65 -209 65 -283 0 -65 -28 -243
-41 -265 -6 -10 -52 -43 -103 -74 -90 -55 -259 -195 -270 -223 -4 -11 -28 8
-83 63 -80 81 -192 165 -275 208 -41 21 -48 29 -53 61 -3 21 -10 58 -16 81
-22 99 -23 194 -1 281 30 115 56 164 134 247 77 81 159 130 239 142 74 12 113
5 188 -30z m-880 -695 c195 -64 355 -133 446 -192 76 -49 172 -129 227 -190
30 -34 58 -61 62 -61 4 0 48 42 99 94 135 137 277 225 488 299 107 38 160 53
307 83 20 4 22 1 22 -46 0 -27 -2 -50 -4 -50 -3 0 -53 -9 -112 -21 -153 -29
-270 -71 -424 -151 -145 -75 -196 -112 -305 -218 l-70 -67 -85 84 c-168 167
-424 295 -708 354 -52 10 -98 21 -103 25 -5 3 -9 27 -9 54 l0 50 33 -7 c17 -3
79 -21 136 -40z m-29 -148 c303 -82 463 -161 636 -313 62 -54 105 -115 91
-129 -9 -9 -7 -10 -123 84 -107 88 -307 191 -439 229 -117 33 -278 71 -337 79
l-48 6 0 46 0 45 48 -7 c26 -3 103 -22 172 -40z m1766 23 c-3 -13 -6 -32 -6
-43 0 -18 -13 -23 -102 -39 -124 -22 -319 -76 -408 -113 -106 -43 -258 -134
-336 -200 -68 -59 -114 -79 -114 -51 0 15 148 159 203 196 70 49 226 129 322
166 125 48 334 100 419 105 25 1 28 -2 22 -21z m-1826 -155 c176 -31 308 -75
460 -155 107 -55 231 -150 217 -164 -3 -4 -39 12 -79 34 -203 111 -536 211
-790 237 l-58 6 0 40 0 40 53 -6 c28 -4 117 -18 197 -32z m1918 -5 l3 -36 -68
-7 c-232 -22 -549 -116 -794 -234 -34 -17 -64 -29 -66 -27 -14 14 72 81 171
134 217 117 443 184 691 205 58 5 60 4 63 -35z m111 -94 c29 -6 32 -10 29 -38
l-3 -30 -80 -2 c-44 -1 -118 -9 -165 -18 -146 -29 -233 -48 -285 -63 -176 -51
-234 -69 -351 -114 -72 -27 -134 -49 -137 -49 -4 0 -7 14 -7 30 0 17 4 30 10
30 5 0 67 27 137 59 267 123 707 224 852 195z m-2086 -35 c66 -11 123 -21 127
-24 3 -2 58 -18 122 -34 186 -49 428 -152 428 -182 0 -10 -5 -21 -10 -24 -6
-4 -72 20 -148 53 -75 33 -186 73 -247 90 -152 43 -379 83 -507 89 l-108 6 0
30 0 30 111 -7 c61 -4 166 -16 232 -27z m-48 -105 c210 -35 389 -88 595 -175
138 -58 125 -32 136 -278 l7 -153 -24 7 c-13 4 -71 25 -129 47 -179 67 -300
108 -424 144 -65 18 -120 35 -121 36 -2 2 -32 41 -66 86 -94 123 -143 187
-189 244 -22 28 -40 55 -40 61 0 12 127 3 255 -19z m2135 17 c0 -6 -5 -13 -10
-16 -13 -8 -160 -182 -247 -292 -61 -78 -63 -79 -140 -102 -91 -27 -363 -123
-431 -153 -26 -11 -69 -28 -97 -38 -27 -10 -59 -21 -69 -26 -19 -7 -19 -2 -13
181 5 135 10 191 19 197 20 11 305 124 373 147 194 64 615 134 615 102z
m-1081 -168 c11 -10 24 -33 27 -50 6 -31 4 -34 -42 -53 -94 -41 -184 -35 -241
14 -24 21 -26 27 -18 52 15 42 48 54 156 54 78 0 101 -3 118 -17z m-184 -179
c53 -15 105 -12 161 12 18 8 38 14 44 14 7 0 8 -46 5 -142 -8 -198 -9 -203
-50 -227 -76 -44 -138 -43 -201 4 -31 24 -31 25 -38 142 -4 65 -10 142 -13
172 -6 54 -6 54 18 47 13 -4 47 -14 74 -22z"/>
</g>
</svg>
